<svg xmlns="http://www.w3.org/2000/svg" data-icon="customer-service-headset" viewBox="0 0 64 64">
  <title>linco bi customer service icon</title>
  <rect width="64" height="64" rx="18" fill="#0f6f56"/>
  <circle cx="32" cy="31" r="19" fill="#e8f5ef"/>
  <path
    d="M18 34v-5c0-8 6-14 14-14s14 6 14 14v5"
    fill="none"
    stroke="#0f6f56"
    stroke-width="5"
    stroke-linecap="round"
  />
  <path
    d="M18 32h5c2 0 4 2 4 4v5c0 2-2 4-4 4h-2c-2 0-3-1-3-3V32Zm28 0h-5c-2 0-4 2-4 4v5c0 2 2 4 4 4h1"
    fill="#0f6f56"
  />
  <path
    d="M42 45c0 4-4 7-10 7h-4"
    fill="none"
    stroke="#0f6f56"
    stroke-width="5"
    stroke-linecap="round"
  />
  <circle cx="26" cy="52" r="4" fill="#ffbf47"/>
  <path
    d="M27 29c2-2 8-2 10 0M25 38c4 3 10 3 14 0"
    fill="none"
    stroke="#0f6f56"
    stroke-width="3"
    stroke-linecap="round"
  />
</svg>
